<svg xmlns="http://www.w3.org/2000/svg" viewBox="0 0 64 64">
  <!-- Crystal ball stand -->
  <path d="M20 52 L24 48 L40 48 L44 52 L42 56 L22 56 Z" fill="#8B7355" stroke="#6B5345" stroke-width="1"/>
  
  <!-- Crystal ball -->
  <circle cx="32" cy="28" r="18" fill="url(#crystal-gradient)" stroke="#9B59B6" stroke-width="2"/>
  
  <!-- Inner glow -->
  <circle cx="32" cy="28" r="14" fill="url(#inner-glow)" opacity="0.6"/>
  
  <!-- Shine highlight -->
  <ellipse cx="26" cy="22" rx="6" ry="8" fill="white" opacity="0.4"/>
  
  <!-- Sparkle 1 -->
  <g transform="translate(12, 12)">
    <path d="M0,-4 L0.5,-0.5 L4,0 L0.5,0.5 L0,4 L-0.5,0.5 L-4,0 L-0.5,-0.5 Z" fill="#FFD700"/>
  </g>
  
  <!-- Sparkle 2 -->
  <g transform="translate(48, 18)">
    <path d="M0,-3 L0.4,-0.4 L3,0 L0.4,0.4 L0,3 L-0.4,0.4 L-3,0 L-0.4,-0.4 Z" fill="#FFD700"/>
  </g>
  
  <!-- Sparkle 3 -->
  <g transform="translate(52, 38)">
    <path d="M0,-2.5 L0.3,-0.3 L2.5,0 L0.3,0.3 L0,2.5 L-0.3,0.3 L-2.5,0 L-0.3,-0.3 Z" fill="#FFD700"/>
  </g>
  
  <!-- Sparkle 4 (small) -->
  <g transform="translate(16, 38)">
    <path d="M0,-2 L0.3,-0.3 L2,0 L0.3,0.3 L0,2 L-0.3,0.3 L-2,0 L-0.3,-0.3 Z" fill="#FFD700"/>
  </g>
  
  <!-- Gradients -->
  <defs>
    <radialGradient id="crystal-gradient" cx="40%" cy="35%">
      <stop offset="0%" style="stop-color:#E8D5FF;stop-opacity:1" />
      <stop offset="50%" style="stop-color:#C8A7E8;stop-opacity:1" />
      <stop offset="100%" style="stop-color:#9B59B6;stop-opacity:1" />
    </radialGradient>
    <radialGradient id="inner-glow" cx="50%" cy="50%">
      <stop offset="0%" style="stop-color:#FFFFFF;stop-opacity:0.8" />
      <stop offset="70%" style="stop-color:#E8D5FF;stop-opacity:0.3" />
      <stop offset="100%" style="stop-color:#9B59B6;stop-opacity:0" />
    </radialGradient>
  </defs>
</svg>

